# MagicaVoxel @ Ephtracy

# group
o 

# material
mtllib charProt-2.mtl
usemtl palette

# normals
vn -1 0 0
vn 1 0 0
vn 0 0 1
vn 0 0 -1
vn 0 -1 0
vn 0 1 0

# texcoords
vt 0.373047 0.5
vt 0.681641 0.5
vt 0.685547 0.5
vt 0.751953 0.5
vt 0.783203 0.5

# verts
v 0.6 0 0.5
v 0.6 0 0.4
v 0.6 1 -0.4
v 0.6 1 -0.7
v 0.6 1.1 0.1
v 0.6 1.1 -0.4
v 0.6 1.1 -0.5
v 0.6 1.1 -0.6
v 0.6 1.1 -0.7
v 0.6 1.2 0.5
v 0.6 1.2 0.4
v 0.6 1.2 0.1
v 0.6 1.2 -0.4
v 0.6 1.2 -0.5
v 0.6 1.2 -0.6
v 0.6 1.3 0.6
v 0.6 1.3 0.5
v 0.6 1.3 0.4
v 0.6 1.3 0.1
v 0.6 1.3 -0.2
v 0.6 1.3 -0.4
v 0.6 1.3 -0.5
v 0.6 1.4 0.4
v 0.6 1.4 0.1
v 0.6 1.4 -0.2
v 0.6 1.4 -0.4
v 0.6 1.5 0.6
v 0.6 1.5 0.5
v 0.6 1.5 0.4
v 0.6 1.5 0.1
v 0.6 1.5 -0.2
v 0.6 1.6 0.5
v 0.6 1.6 0.4
v 0.6 1.6 0.1
v 0.6 1.7 0.5
v 0.6 1.7 0.4
v 0.7 0 0.5
v 0.7 0 0.4
v 0.7 1 -0.4
v 0.7 1 -0.7
v 0.7 1.1 0.1
v 0.7 1.1 -0.4
v 0.7 1.1 -0.5
v 0.7 1.1 -0.6
v 0.7 1.1 -0.7
v 0.7 1.2 0.5
v 0.7 1.2 0.4
v 0.7 1.2 0.1
v 0.7 1.2 -0.4
v 0.7 1.2 -0.5
v 0.7 1.2 -0.6
v 0.7 1.3 0.6
v 0.7 1.3 0.5
v 0.7 1.3 0.4
v 0.7 1.3 0.1
v 0.7 1.3 -0.2
v 0.7 1.3 -0.4
v 0.7 1.3 -0.5
v 0.7 1.4 0.4
v 0.7 1.4 0.1
v 0.7 1.4 -0.2
v 0.7 1.4 -0.4
v 0.7 1.5 0.6
v 0.7 1.5 0.5
v 0.7 1.5 0.4
v 0.7 1.5 0.1
v 0.7 1.5 -0.2
v 0.7 1.6 0.5
v 0.7 1.6 0.4
v 0.7 1.6 0.1
v 0.7 1.7 0.5
v 0.7 1.7 0.4
v 0.6 1.3 0.6
v 0.6 1.5 0.6
v 0.7 1.3 0.6
v 0.7 1.5 0.6
v 0.6 0 0.5
v 0.6 1.2 0.5
v 0.6 1.3 0.5
v 0.6 1.5 0.5
v 0.6 1.6 0.5
v 0.6 1.7 0.5
v 0.7 0 0.5
v 0.7 1.2 0.5
v 0.7 1.3 0.5
v 0.7 1.5 0.5
v 0.7 1.6 0.5
v 0.7 1.7 0.5
v 0.6 1.1 0.1
v 0.6 1.2 0.1
v 0.7 1.1 0.1
v 0.7 1.2 0.1
v 0.6 1 -0.4
v 0.6 1.1 -0.4
v 0.7 1 -0.4
v 0.7 1.1 -0.4
v 0.6 0 0.4
v 0.6 1.2 0.4
v 0.6 1.6 0.4
v 0.6 1.7 0.4
v 0.7 0 0.4
v 0.7 1.2 0.4
v 0.7 1.6 0.4
v 0.7 1.7 0.4
v 0.6 1.5 0.1
v 0.6 1.6 0.1
v 0.7 1.5 0.1
v 0.7 1.6 0.1
v 0.6 1.4 -0.2
v 0.6 1.5 -0.2
v 0.7 1.4 -0.2
v 0.7 1.5 -0.2
v 0.6 1.3 -0.4
v 0.6 1.4 -0.4
v 0.7 1.3 -0.4
v 0.7 1.4 -0.4
v 0.6 1.2 -0.5
v 0.6 1.3 -0.5
v 0.7 1.2 -0.5
v 0.7 1.3 -0.5
v 0.6 1.1 -0.6
v 0.6 1.2 -0.6
v 0.7 1.1 -0.6
v 0.7 1.2 -0.6
v 0.6 1 -0.7
v 0.6 1.1 -0.7
v 0.7 1 -0.7
v 0.7 1.1 -0.7
v 0.6 0 0.5
v 0.7 0 0.5
v 0.6 0 0.4
v 0.7 0 0.4
v 0.6 1 -0.4
v 0.7 1 -0.4
v 0.6 1 -0.7
v 0.7 1 -0.7
v 0.6 1.1 0.1
v 0.7 1.1 0.1
v 0.6 1.1 -0.4
v 0.7 1.1 -0.4
v 0.6 1.2 0.4
v 0.7 1.2 0.4
v 0.6 1.2 0.1
v 0.7 1.2 0.1
v 0.6 1.3 0.6
v 0.7 1.3 0.6
v 0.6 1.3 0.5
v 0.7 1.3 0.5
v 0.6 1.1 -0.6
v 0.7 1.1 -0.6
v 0.6 1.1 -0.7
v 0.7 1.1 -0.7
v 0.6 1.2 -0.5
v 0.7 1.2 -0.5
v 0.6 1.2 -0.6
v 0.7 1.2 -0.6
v 0.6 1.3 -0.4
v 0.7 1.3 -0.4
v 0.6 1.3 -0.5
v 0.7 1.3 -0.5
v 0.6 1.4 -0.2
v 0.7 1.4 -0.2
v 0.6 1.4 -0.4
v 0.7 1.4 -0.4
v 0.6 1.5 0.6
v 0.7 1.5 0.6
v 0.6 1.5 0.5
v 0.7 1.5 0.5
v 0.6 1.5 0.1
v 0.7 1.5 0.1
v 0.6 1.5 -0.2
v 0.7 1.5 -0.2
v 0.6 1.6 0.4
v 0.7 1.6 0.4
v 0.6 1.6 0.1
v 0.7 1.6 0.1
v 0.6 1.7 0.5
v 0.7 1.7 0.5
v 0.6 1.7 0.4
v 0.7 1.7 0.4

# faces
f 6/4/1 4/4/1 3/4/1
f 7/4/1 4/4/1 6/4/1
f 8/4/1 4/4/1 7/4/1
f 9/4/1 4/4/1 8/4/1
f 10/1/1 2/1/1 1/1/1
f 11/1/1 2/1/1 10/1/1
f 12/4/1 6/4/1 5/4/1
f 13/3/1 7/3/1 6/3/1
f 13/4/1 6/4/1 12/4/1
f 14/4/1 8/4/1 7/4/1
f 14/3/1 7/3/1 13/3/1
f 15/4/1 8/4/1 14/4/1
f 17/4/1 11/4/1 10/4/1
f 17/4/1 12/4/1 11/4/1
f 18/4/1 12/4/1 17/4/1
f 19/3/1 13/3/1 12/3/1
f 19/4/1 12/4/1 18/4/1
f 20/3/1 13/3/1 19/3/1
f 21/4/1 14/4/1 13/4/1
f 21/3/1 13/3/1 20/3/1
f 22/4/1 14/4/1 21/4/1
f 23/5/1 18/5/1 17/5/1
f 23/3/1 19/3/1 18/3/1
f 24/2/1 20/2/1 19/2/1
f 24/3/1 19/3/1 23/3/1
f 25/4/1 21/4/1 20/4/1
f 25/2/1 20/2/1 24/2/1
f 26/4/1 21/4/1 25/4/1
f 27/4/1 17/4/1 16/4/1
f 28/5/1 23/5/1 17/5/1
f 28/4/1 17/4/1 27/4/1
f 29/2/1 24/2/1 23/2/1
f 29/5/1 23/5/1 28/5/1
f 30/4/1 25/4/1 24/4/1
f 30/2/1 24/2/1 29/2/1
f 31/4/1 25/4/1 30/4/1
f 32/4/1 29/4/1 28/4/1
f 32/4/1 30/4/1 29/4/1
f 33/4/1 30/4/1 32/4/1
f 34/4/1 30/4/1 33/4/1
f 35/1/1 33/1/1 32/1/1
f 36/1/1 33/1/1 35/1/1
f 39/4/2 40/4/2 42/4/2
f 42/4/2 40/4/2 43/4/2
f 43/4/2 40/4/2 44/4/2
f 44/4/2 40/4/2 45/4/2
f 37/1/2 38/1/2 46/1/2
f 46/1/2 38/1/2 47/1/2
f 41/4/2 42/4/2 48/4/2
f 42/3/2 43/3/2 49/3/2
f 48/4/2 42/4/2 49/4/2
f 43/4/2 44/4/2 50/4/2
f 49/3/2 43/3/2 50/3/2
f 50/4/2 44/4/2 51/4/2
f 46/4/2 47/4/2 53/4/2
f 47/4/2 48/4/2 53/4/2
f 53/4/2 48/4/2 54/4/2
f 48/3/2 49/3/2 55/3/2
f 54/4/2 48/4/2 55/4/2
f 55/3/2 49/3/2 56/3/2
f 49/4/2 50/4/2 57/4/2
f 56/3/2 49/3/2 57/3/2
f 57/4/2 50/4/2 58/4/2
f 53/5/2 54/5/2 59/5/2
f 54/3/2 55/3/2 59/3/2
f 55/2/2 56/2/2 60/2/2
f 59/3/2 55/3/2 60/3/2
f 56/4/2 57/4/2 61/4/2
f 60/2/2 56/2/2 61/2/2
f 61/4/2 57/4/2 62/4/2
f 52/4/2 53/4/2 63/4/2
f 53/5/2 59/5/2 64/5/2
f 63/4/2 53/4/2 64/4/2
f 59/2/2 60/2/2 65/2/2
f 64/5/2 59/5/2 65/5/2
f 60/4/2 61/4/2 66/4/2
f 65/2/2 60/2/2 66/2/2
f 66/4/2 61/4/2 67/4/2
f 64/4/2 65/4/2 68/4/2
f 65/4/2 66/4/2 68/4/2
f 68/4/2 66/4/2 69/4/2
f 69/4/2 66/4/2 70/4/2
f 68/1/2 69/1/2 71/1/2
f 71/1/2 69/1/2 72/1/2
f 75/4/3 74/4/3 73/4/3
f 76/4/3 74/4/3 75/4/3
f 83/1/3 78/1/3 77/1/3
f 84/4/3 79/4/3 78/4/3
f 84/1/3 78/1/3 83/1/3
f 85/4/3 79/4/3 84/4/3
f 86/4/3 81/4/3 80/4/3
f 87/1/3 82/1/3 81/1/3
f 87/4/3 81/4/3 86/4/3
f 88/1/3 82/1/3 87/1/3
f 91/4/3 90/4/3 89/4/3
f 92/4/3 90/4/3 91/4/3
f 95/4/3 94/4/3 93/4/3
f 96/4/3 94/4/3 95/4/3
f 97/1/4 98/1/4 101/1/4
f 101/1/4 98/1/4 102/1/4
f 99/1/4 100/1/4 103/1/4
f 103/1/4 100/1/4 104/1/4
f 105/4/4 106/4/4 107/4/4
f 107/4/4 106/4/4 108/4/4
f 109/4/4 110/4/4 111/4/4
f 111/4/4 110/4/4 112/4/4
f 113/4/4 114/4/4 115/4/4
f 115/4/4 114/4/4 116/4/4
f 117/4/4 118/4/4 119/4/4
f 119/4/4 118/4/4 120/4/4
f 121/4/4 122/4/4 123/4/4
f 123/4/4 122/4/4 124/4/4
f 125/4/4 126/4/4 127/4/4
f 127/4/4 126/4/4 128/4/4
f 131/1/5 130/1/5 129/1/5
f 132/1/5 130/1/5 131/1/5
f 135/4/5 134/4/5 133/4/5
f 136/4/5 134/4/5 135/4/5
f 139/4/5 138/4/5 137/4/5
f 140/4/5 138/4/5 139/4/5
f 143/4/5 142/4/5 141/4/5
f 144/4/5 142/4/5 143/4/5
f 147/4/5 146/4/5 145/4/5
f 148/4/5 146/4/5 147/4/5
f 149/4/6 150/4/6 151/4/6
f 151/4/6 150/4/6 152/4/6
f 153/4/6 154/4/6 155/4/6
f 155/4/6 154/4/6 156/4/6
f 157/4/6 158/4/6 159/4/6
f 159/4/6 158/4/6 160/4/6
f 161/4/6 162/4/6 163/4/6
f 163/4/6 162/4/6 164/4/6
f 165/4/6 166/4/6 167/4/6
f 167/4/6 166/4/6 168/4/6
f 169/4/6 170/4/6 171/4/6
f 171/4/6 170/4/6 172/4/6
f 173/4/6 174/4/6 175/4/6
f 175/4/6 174/4/6 176/4/6
f 177/1/6 178/1/6 179/1/6
f 179/1/6 178/1/6 180/1/6
